<svg xmlns="http://www.w3.org/2000/svg" viewBox="0 0 64 64">
  <defs>
    <linearGradient id="bg" x1="0" y1="0" x2="1" y2="1">
      <stop offset="0%" stop-color="#7C3AED"/>
      <stop offset="100%" stop-color="#10B981"/>
    </linearGradient>
  </defs>
  <rect width="64" height="64" rx="14" fill="url(#bg)"/>
  <!-- Circuit chip icon -->
  <rect x="18" y="18" width="28" height="28" rx="4" fill="none" stroke="#fff" stroke-width="2.5"/>
  <rect x="24" y="24" width="16" height="16" rx="2" fill="#fff" opacity="0.9"/>
  <!-- Chip pins -->
  <line x1="14" y1="26" x2="18" y2="26" stroke="#fff" stroke-width="2" stroke-linecap="round"/>
  <line x1="14" y1="32" x2="18" y2="32" stroke="#fff" stroke-width="2" stroke-linecap="round"/>
  <line x1="14" y1="38" x2="18" y2="38" stroke="#fff" stroke-width="2" stroke-linecap="round"/>
  <line x1="46" y1="26" x2="50" y2="26" stroke="#fff" stroke-width="2" stroke-linecap="round"/>
  <line x1="46" y1="32" x2="50" y2="32" stroke="#fff" stroke-width="2" stroke-linecap="round"/>
  <line x1="46" y1="38" x2="50" y2="38" stroke="#fff" stroke-width="2" stroke-linecap="round"/>
  <line x1="26" y1="14" x2="26" y2="18" stroke="#fff" stroke-width="2" stroke-linecap="round"/>
  <line x1="32" y1="14" x2="32" y2="18" stroke="#fff" stroke-width="2" stroke-linecap="round"/>
  <line x1="38" y1="14" x2="38" y2="18" stroke="#fff" stroke-width="2" stroke-linecap="round"/>
  <line x1="26" y1="46" x2="26" y2="50" stroke="#fff" stroke-width="2" stroke-linecap="round"/>
  <line x1="32" y1="46" x2="32" y2="50" stroke="#fff" stroke-width="2" stroke-linecap="round"/>
  <line x1="38" y1="46" x2="38" y2="50" stroke="#fff" stroke-width="2" stroke-linecap="round"/>
  <!-- Inner circuit lines -->
  <circle cx="29" cy="29" r="1.5" fill="#7C3AED"/>
  <circle cx="35" cy="29" r="1.5" fill="#7C3AED"/>
  <circle cx="29" cy="35" r="1.5" fill="#7C3AED"/>
  <circle cx="35" cy="35" r="1.5" fill="#10B981"/>
  <line x1="29" y1="29" x2="35" y2="35" stroke="#7C3AED" stroke-width="1.2"/>
  <line x1="35" y1="29" x2="29" y2="35" stroke="#10B981" stroke-width="1.2"/>
</svg>
